<svg width="0" height="0" class="hidden">
  <symbol xmlns="http://www.w3.org/2000/svg" viewBox="0 0 31 19" id="vk_black">
    <path d="M15.092 18.028h1.84s.552-.092.828-.368c.276-.276.276-.828.276-.828s0-2.392 1.104-2.76c1.104-.368 2.576 2.392 4.048 3.404 1.104.828 1.932.644 1.932.644l4.048-.092s2.116-.092 1.104-1.84c-.092-.092-.552-1.196-3.036-3.496-2.576-2.392-2.208-1.932.828-6.072 1.84-2.484 2.576-3.956 2.392-4.692-.184-.644-1.564-.46-1.564-.46h-4.6s-.368-.092-.552.092c-.276.184-.368.46-.368.46s-.736 1.932-1.656 3.588c-2.024 3.404-2.852 3.588-3.128 3.404-.736-.46-.552-2.024-.552-3.036 0-3.312.552-4.692-1.012-5.06-.46-.092-.828-.184-2.116-.184-1.656 0-3.036 0-3.772.368-.552.276-.92.828-.644.828s1.012.184 1.38.644c.368.828.368 2.208.368 2.208s.276 3.956-.644 4.416c-.644.368-1.472-.368-3.312-3.496-.92-1.564-1.656-3.404-1.656-3.404s-.092-.368-.368-.552c-.276-.184-.736-.276-.736-.276H1.2s-.644 0-.92.276c-.184.276 0 .736 0 .736s3.404 7.912 7.268 11.96c3.588 3.864 7.544 3.588 7.544 3.588z"></path>
  </symbol>
  <symbol xmlns="http://www.w3.org/2000/svg" viewBox="0 0 20 20" id="inst_black">
    <path d="M10 6.876A3.13 3.13 0 006.876 10 3.13 3.13 0 0010 13.124 3.13 3.13 0 0013.124 10 3.13 3.13 0 0010 6.876zM19.37 10c0-1.294.012-2.576-.06-3.867-.073-1.5-.415-2.832-1.512-3.929C16.698 1.105 15.37.765 13.87.693 12.576.62 11.294.632 10.003.632c-1.294 0-2.576-.012-3.868.06-1.5.073-2.831.416-3.928 1.512-1.1 1.1-1.439 2.429-1.512 3.929C.623 7.426.635 8.708.635 10c0 1.291-.012 2.576.06 3.867.073 1.5.415 2.831 1.512 3.928 1.1 1.1 2.428 1.44 3.928 1.512 1.294.073 2.576.06 3.867.06 1.294 0 2.576.012 3.868-.06 1.5-.073 2.83-.415 3.928-1.512 1.099-1.1 1.439-2.428 1.512-3.928.075-1.291.06-2.574.06-3.867zM10 14.807A4.8 4.8 0 015.193 10 4.8 4.8 0 0110 5.193 4.8 4.8 0 0114.807 10 4.8 4.8 0 0110 14.807zm5.004-8.688a1.121 1.121 0 01-1.123-1.123c0-.621.502-1.123 1.123-1.123a1.121 1.121 0 01.43 2.16 1.121 1.121 0 01-.43.086z"></path>
  </symbol>
  <symbol xmlns="http://www.w3.org/2000/svg" viewBox="0 0 27 20" id="yt_black">
    <path d="M25.658 3.675a3.318 3.318 0 00-.821-1.472 3.158 3.158 0 00-1.422-.851C21.435.8 13.5.8 13.5.8s-7.935 0-9.915.548a3.152 3.152 0 00-1.422.85 3.313 3.313 0 00-.82 1.473C.812 5.722.812 10 .812 10s0 4.277.53 6.325c.29 1.131 1.152 2.022 2.242 2.323 1.98.551 9.915.551 9.915.551s7.935 0 9.915-.55c1.093-.302 1.951-1.193 2.243-2.324.53-2.048.53-6.325.53-6.325s0-4.277-.53-6.325zm-14.679 10.25v-7.85l6.57 3.896-6.57 3.955z"></path>
  </symbol>
  <symbol xmlns="http://www.w3.org/2000/svg" viewBox="0 0 31 19" id="vk__white">
    <path d="M15.092 18.028h1.84s.552-.092.828-.368c.276-.276.276-.828.276-.828s0-2.392 1.104-2.76c1.104-.368 2.576 2.392 4.048 3.404 1.104.828 1.932.644 1.932.644l4.048-.092s2.116-.092 1.104-1.84c-.092-.092-.552-1.196-3.036-3.496-2.576-2.392-2.208-1.932.828-6.072 1.84-2.484 2.576-3.956 2.392-4.692-.184-.644-1.564-.46-1.564-.46h-4.6s-.368-.092-.552.092c-.276.184-.368.46-.368.46s-.736 1.932-1.656 3.588c-2.024 3.404-2.852 3.588-3.128 3.404-.736-.46-.552-2.024-.552-3.036 0-3.312.552-4.692-1.012-5.06-.46-.092-.828-.184-2.116-.184-1.656 0-3.036 0-3.772.368-.552.276-.92.828-.644.828s1.012.184 1.38.644c.368.828.368 2.208.368 2.208s.276 3.956-.644 4.416c-.644.368-1.472-.368-3.312-3.496-.92-1.564-1.656-3.404-1.656-3.404s-.092-.368-.368-.552c-.276-.184-.736-.276-.736-.276H1.2s-.644 0-.92.276c-.184.276 0 .736 0 .736s3.404 7.912 7.268 11.96c3.588 3.864 7.544 3.588 7.544 3.588z"></path>
  </symbol>
  <symbol xmlns="http://www.w3.org/2000/svg" viewBox="0 0 20 20" id="inst__white">
    <path d="M10 6.876A3.13 3.13 0 006.876 10 3.13 3.13 0 0010 13.124 3.13 3.13 0 0013.124 10 3.13 3.13 0 0010 6.876zM19.37 10c0-1.294.012-2.576-.06-3.867-.073-1.5-.415-2.832-1.512-3.929C16.698 1.105 15.37.765 13.87.693 12.576.62 11.294.632 10.003.632c-1.294 0-2.576-.012-3.868.06-1.5.073-2.831.416-3.928 1.512-1.1 1.1-1.439 2.429-1.512 3.929C.623 7.426.635 8.708.635 10c0 1.291-.012 2.576.06 3.867.073 1.5.415 2.831 1.512 3.928 1.1 1.1 2.428 1.44 3.928 1.512 1.294.073 2.576.06 3.867.06 1.294 0 2.576.012 3.868-.06 1.5-.073 2.83-.415 3.928-1.512 1.099-1.1 1.439-2.428 1.512-3.928.075-1.291.06-2.574.06-3.867zM10 14.807A4.8 4.8 0 015.193 10 4.8 4.8 0 0110 5.193 4.8 4.8 0 0114.807 10 4.8 4.8 0 0110 14.807zm5.004-8.688a1.121 1.121 0 01-1.123-1.123c0-.621.502-1.123 1.123-1.123a1.121 1.121 0 01.43 2.16 1.121 1.121 0 01-.43.086z"></path>
  </symbol>
  <symbol xmlns="http://www.w3.org/2000/svg" viewBox="0 0 27 20" id="yt__white">
    <path d="M25.658 3.675a3.318 3.318 0 00-.821-1.472 3.158 3.158 0 00-1.422-.851C21.435.8 13.5.8 13.5.8s-7.935 0-9.915.548a3.152 3.152 0 00-1.422.85 3.313 3.313 0 00-.82 1.473C.812 5.722.812 10 .812 10s0 4.277.53 6.325c.29 1.131 1.152 2.022 2.242 2.323 1.98.551 9.915.551 9.915.551s7.935 0 9.915-.55c1.093-.302 1.951-1.193 2.243-2.324.53-2.048.53-6.325.53-6.325s0-4.277-.53-6.325zm-14.679 10.25v-7.85l6.57 3.896-6.57 3.955z"></path>
  </symbol>
  <symbol xmlns="http://www.w3.org/2000/svg" viewBox="0 0 54 54" id="approach_icon">
    <path d="M24 6a18 18 0 100 36 18 18 0 000-36zm0 32.865a15 15 0 11.001-30 15 15 0 01-.001 30zm23.565 5.67L39.81 36.78A20.518 20.518 0 0137.725 39l7.725 7.725a1.5 1.5 0 002.115-2.115v-.075z"></path>
    <path d="M31.5 22.5h-6v-6a1.5 1.5 0 10-3 0v6h-6a1.5 1.5 0 100 3h6v6a1.5 1.5 0 103 0v-6h6a1.5 1.5 0 100-3z"></path>
  </symbol>
</svg>