<svg width="68" height="100" viewBox="0 0 68 100" fill="none" xmlns="http://www.w3.org/2000/svg">
<path d="M18.4848 84.1426L18.0665 83.2342L18.4848 84.1426ZM1.56239 91.1564C1.37101 91.6744 1.63584 92.2495 2.1539 92.4409L10.5962 95.5597C11.1143 95.7511 11.6894 95.4863 11.8808 94.9682C12.0722 94.4501 11.8074 93.875 11.2893 93.6836L3.785 90.9114L6.55724 83.4071C6.74862 82.889 6.4838 82.3139 5.96573 82.1225C5.44767 81.9311 4.87255 82.1959 4.68117 82.714L1.56239 91.1564ZM64.0071 1.11943C64.3421 3.91898 64.5273 6.70994 64.5678 9.48303L66.5676 9.45378C66.526 6.61128 66.3362 3.75076 65.9929 0.881792L64.0071 1.11943ZM63.0561 26.1487C61.9635 31.6626 60.2961 37.0188 58.1003 42.1344L59.9381 42.9233C62.1887 37.68 63.8979 32.1897 65.018 26.5375L63.0561 26.1487ZM49.9287 56.7405C46.7181 61.2883 43.026 65.5117 38.8988 69.3279L40.2566 70.7964C44.4873 66.8845 48.2718 62.5553 51.5625 57.8939L49.9287 56.7405ZM25.4873 79.336C23.1029 80.7524 20.6275 82.0549 18.0665 83.2342L18.903 85.0509C21.5276 83.8423 24.0646 82.5074 26.5087 81.0556L25.4873 79.336ZM18.0665 83.2342L14.0704 85.0743L14.9069 86.891L18.903 85.0509L18.0665 83.2342ZM6.07825 88.7545L2.08217 90.5946L2.91869 92.4112L6.91477 90.5711L6.07825 88.7545ZM18.4848 84.1426L17.6482 82.3259L18.4848 84.1426ZM0.624354 90.8098C0.241583 91.846 0.771243 92.9962 1.80737 93.379L18.6921 99.6165C19.7282 99.9993 20.8784 99.4696 21.2612 98.4335C21.644 97.3974 21.1143 96.2471 20.0782 95.8644L5.06957 90.3199L10.6141 75.3113C10.9968 74.2751 10.4672 73.1249 9.43104 72.7421C8.39491 72.3593 7.24467 72.889 6.8619 73.9251L0.624354 90.8098ZM63.0142 1.23825C63.345 4.00309 63.5279 6.75927 63.5679 9.49766L67.5675 9.43915C67.5254 6.56195 67.3333 3.66665 66.9858 0.762971L63.0142 1.23825ZM62.0752 25.9543C60.9963 31.3991 59.3497 36.6883 57.1814 41.7399L60.8571 43.3177C63.1351 38.0105 64.8651 32.4532 65.9989 26.7319L62.0752 25.9543ZM49.1117 56.1637C45.9412 60.6548 42.2953 64.8254 38.2199 68.5937L40.9355 71.5306C45.218 67.5708 49.0487 63.1888 52.3795 58.4706L49.1117 56.1637ZM24.9766 78.4763C22.622 79.8749 20.1775 81.1612 17.6482 82.3259L19.3213 85.9592C21.9776 84.7361 24.5455 83.3849 27.0194 81.9153L24.9766 78.4763ZM17.6482 82.3259L13.6522 84.166L15.3252 87.7993L19.3213 85.9592L17.6482 82.3259ZM5.66 87.8462L1.66391 89.6862L3.33695 93.3195L7.33303 91.4795L5.66 87.8462Z" fill="#57ADFF"/>
</svg>
