<svg width="20" height="20" viewBox="0 0 20 20" fill="none" xmlns="http://www.w3.org/2000/svg">
<path d="M10.0001 6.87555C8.2798 6.87555 6.87589 8.27946 6.87589 9.99977C6.87589 11.7201 8.2798 13.124 10.0001 13.124C11.7204 13.124 13.1243 11.7201 13.1243 9.99977C13.1243 8.27946 11.7204 6.87555 10.0001 6.87555ZM19.3704 9.99977C19.3704 8.70602 19.3821 7.42399 19.3095 6.13258C19.2368 4.63258 18.8946 3.30133 17.7978 2.20446C16.6985 1.10524 15.3696 0.765394 13.8696 0.692738C12.5759 0.620082 11.2939 0.631801 10.0025 0.631801C8.7087 0.631801 7.42667 0.620082 6.13527 0.692738C4.63527 0.765394 3.30402 1.10758 2.20714 2.20446C1.10792 3.30368 0.76808 4.63258 0.695424 6.13258C0.622767 7.42633 0.634486 8.70836 0.634486 9.99977C0.634486 11.2912 0.622767 12.5756 0.695424 13.867C0.76808 15.367 1.11027 16.6982 2.20714 17.7951C3.30636 18.8943 4.63527 19.2341 6.13527 19.3068C7.42902 19.3795 8.71105 19.3677 10.0025 19.3677C11.2962 19.3677 12.5782 19.3795 13.8696 19.3068C15.3696 19.2341 16.7009 18.892 17.7978 17.7951C18.897 16.6959 19.2368 15.367 19.3095 13.867C19.3845 12.5756 19.3704 11.2935 19.3704 9.99977ZM10.0001 14.8068C7.33995 14.8068 5.19308 12.6599 5.19308 9.99977C5.19308 7.33961 7.33995 5.19274 10.0001 5.19274C12.6603 5.19274 14.8071 7.33961 14.8071 9.99977C14.8071 12.6599 12.6603 14.8068 10.0001 14.8068ZM15.004 6.11852C14.3829 6.11852 13.8814 5.61696 13.8814 4.99586C13.8814 4.37477 14.3829 3.87321 15.004 3.87321C15.6251 3.87321 16.1267 4.37477 16.1267 4.99586C16.1269 5.14335 16.0979 5.28941 16.0416 5.4257C15.9852 5.562 15.9025 5.68583 15.7983 5.79011C15.694 5.8944 15.5701 5.97709 15.4339 6.03344C15.2976 6.08979 15.1515 6.11871 15.004 6.11852Z" fill="#57ADFF"/>
</svg>
