<svg width="31" height="19" viewBox="0 0 31 19" fill="none" xmlns="http://www.w3.org/2000/svg">
<path fill-rule="evenodd" clip-rule="evenodd" d="M15.092 18.0279H16.932C16.932 18.0279 17.484 17.9359 17.76 17.6599C18.036 17.3839 18.036 16.8319 18.036 16.8319C18.036 16.8319 18.036 14.4399 19.14 14.0719C20.244 13.7039 21.716 16.4639 23.188 17.4759C24.292 18.3039 25.12 18.1199 25.12 18.1199L29.168 18.0279C29.168 18.0279 31.284 17.9359 30.272 16.1879C30.18 16.0959 29.72 14.9919 27.236 12.6919C24.66 10.2999 25.028 10.7599 28.064 6.61993C29.904 4.13593 30.64 2.66393 30.456 1.92793C30.272 1.28393 28.892 1.46793 28.892 1.46793H24.292C24.292 1.46793 23.924 1.37593 23.74 1.55993C23.464 1.74393 23.372 2.01993 23.372 2.01993C23.372 2.01993 22.636 3.95193 21.716 5.60793C19.692 9.01193 18.864 9.19593 18.588 9.01193C17.852 8.55193 18.036 6.98793 18.036 5.97593C18.036 2.66393 18.588 1.28393 17.024 0.915933C16.564 0.823933 16.196 0.731934 14.908 0.731934C13.252 0.731934 11.872 0.731933 11.136 1.09993C10.584 1.37593 10.216 1.92793 10.492 1.92793C10.768 1.92793 11.504 2.11193 11.872 2.57193C12.24 3.39993 12.24 4.77993 12.24 4.77993C12.24 4.77993 12.516 8.73593 11.596 9.19593C10.952 9.56393 10.124 8.82793 8.28402 5.69993C7.36402 4.13593 6.62802 2.29593 6.62802 2.29593C6.62802 2.29593 6.53602 1.92793 6.26002 1.74393C5.98402 1.55993 5.52402 1.46793 5.52402 1.46793H1.20002C1.20002 1.46793 0.55602 1.46793 0.28002 1.74393C0.09602 2.01993 0.28002 2.47993 0.28002 2.47993C0.28002 2.47993 3.68402 10.3919 7.54802 14.4399C11.136 18.3039 15.092 18.0279 15.092 18.0279Z" fill="white"/>
</svg>
